<svg aria-hidden="true" style="position:absolute;width:0;height:0;overflow:hidden" xmlns="http://www.w3.org/2000/svg">
  <defs>
    <symbol id="icon-telegram" viewBox="0 0 32 32">      
      <path d="M13.1023 19.3191L12.7847 23.4894C13.2391 23.4894 13.4359 23.3072 13.6719 23.0884L15.8023 21.1877L20.2169 24.2056C21.0265 24.6269 21.5969 24.4051 21.8153 23.5103L24.713 10.8349L24.7138 10.8342C24.9706 9.71689 24.2809 9.27999 23.4921 9.55408L6.45972 15.6416C5.2973 16.0628 5.3149 16.6678 6.26212 16.9419L10.6166 18.2063L20.7313 12.298C21.2073 12.0037 21.6401 12.1665 21.2841 12.4608L13.1023 19.3191Z"/>
    </symbol>
    <symbol id="icon-open-menu" viewBox="0 0 50 32">
      <path stroke-linecap="round" stroke-width="4.571" d="M2.286 2.286H48M2.286 16H48M2.286 29.714H48"/>
    </symbol>
    <symbol id="icon-github" viewBox="0 0 32 32">            
      <path d="M15.9997 7.52905C10.8302 7.52905 6.58789 11.7724 6.58789 16.9431C6.58789 21.3555 9.68331 25.3637 13.7938 26.3571V23.2426C13.3865 23.3318 13.0117 23.3344 12.5971 23.2121C12.0408 23.0479 11.5889 22.6773 11.2534 22.1122C11.0396 21.7514 10.6606 21.3601 10.2652 21.3888L10.1683 20.2899C11.0232 20.2167 11.7628 20.8109 12.2018 21.5487C12.3969 21.8768 12.6213 22.0691 12.9094 22.1542C13.1879 22.2362 13.4869 22.1968 13.8353 22.0737C13.9227 21.376 14.2423 21.1149 14.4837 20.7471V20.7466C12.0322 20.3808 11.0552 19.08 10.6675 18.0532C10.1536 16.6898 10.4294 14.9866 11.338 13.9103C11.3557 13.8893 11.3876 13.8344 11.3752 13.7961C10.9586 12.5373 11.4663 11.496 11.4849 11.3855C11.9657 11.5277 12.0439 11.2425 13.5735 12.172L13.8379 12.3309C13.9484 12.3968 13.9137 12.3592 14.0243 12.3508C14.6629 12.1773 15.3362 12.0815 15.9995 12.0729C16.6679 12.0815 17.3368 12.1773 18.0019 12.3579L18.0875 12.3665C18.08 12.3654 18.1108 12.361 18.1623 12.3303C20.0731 11.1727 20.0044 11.551 20.5168 11.3844C20.5354 11.495 21.0363 12.5532 20.6241 13.7961C20.5685 13.9673 22.2807 15.5355 21.3317 18.0528C20.9439 19.08 19.9671 20.3808 17.5156 20.7466V20.7471C17.8298 21.2262 18.2074 21.481 18.2054 22.4693V26.3571C22.316 25.3637 25.4113 21.3555 25.4113 16.9431C25.4114 11.7724 21.1691 7.52905 15.9997 7.52905V7.52905Z" />
    </symbol>
    <symbol id="icon-facebook" viewBox="0 0 32 32">
      <path d="M20.4456 16.9246H17.8355V26.5455H13.8808V16.9246H12V13.5435H13.8808V11.3555C13.8808 9.79089 14.6196 7.34082 17.8707 7.34082L20.8 7.35315V10.6351H18.6746C18.3259 10.6351 17.8357 10.8104 17.8357 11.5567V13.5467H20.7911L20.4456 16.9246Z"/>
    </symbol>
    <symbol id="icon-ellipse" viewBox="0 0 23 32">
      <path stroke-width=".711" d="M11.556.356c6.186 0 11.2 5.014 11.2 11.2v8.889c0 6.186-5.014 11.2-11.2 11.2s-11.2-5.014-11.2-11.2v-8.889c0-6.186 5.014-11.2 11.2-11.2z"/>
    </symbol>
    <symbol id="icon-close-modal" viewBox="0 0 32 32">
      <path d="m17.253 16 7.369-7.369a.886.886 0 0 0-.047-1.207.89.89 0 0 0-1.206-.047L16 14.746 8.631 7.368A.892.892 0 0 0 7.369 8.63l7.378 7.369-7.378 7.369a.891.891 0 0 0-.05 1.304.89.89 0 0 0 1.304-.051l7.378-7.369 7.369 7.369a.885.885 0 0 0 1.206-.047.89.89 0 0 0 .047-1.206l-7.369-7.369z"/>
    </symbol>
    <symbol id="icon-close-menu" viewBox="0 0 32 32">
      <path d="M23.884 6.706 16 14.59 8.116 6.706a.995.995 0 0 0-1.38.031 1 1 0 0 0-.031 1.38l7.88 7.884-7.882 7.882a1.002 1.002 0 0 0-.018 1.427.998.998 0 0 0 1.427-.015l7.886-7.882 7.884 7.884a1 1 0 0 0 1.38-.03 1 1 0 0 0 .03-1.38l-7.884-7.884 7.884-7.886a1.002 1.002 0 0 0 .018-1.427.998.998 0 0 0-1.427.015v.002z"/>
    </symbol>
    <symbol id="icon-arrow-hover" viewBox="0 0 51 16">
      <path d="M50.7071 8.70711C51.0976 8.31658 51.0976 7.68342 50.7071 7.29289L44.3431 0.928932C43.9526 0.538408 43.3195 0.538408 42.9289 0.928932C42.5384 1.31946 42.5384 1.95262 42.9289 2.34315L48.5858 8L42.9289 13.6569C42.5384 14.0474 42.5384 14.6805 42.9289 15.0711C43.3195 15.4616 43.9526 15.4616 44.3431 15.0711L50.7071 8.70711ZM0 9H50V7H0V9Z"/>
    </symbol>
    <symbol id="icon-arrow-focus" viewBox="0 0 52 24">      
      <path d="M51.0607 13.0607C51.6464 12.4749 51.6464 11.5251 51.0607 10.9393L41.5147 1.3934C40.9289 0.807612 39.9792 0.807612 39.3934 1.3934C38.8076 1.97918 38.8076 2.92893 39.3934 3.51472L47.8787 12L39.3934 20.4853C38.8076 21.0711 38.8076 22.0208 39.3934 22.6066C39.9792 23.1924 40.9289 23.1924 41.5147 22.6066L51.0607 13.0607ZM0 13.5H50V10.5H0V13.5Z"/>
    </symbol>
    <symbol id="icon-arrow-default" viewBox="0 0 41 16">
      <path d="M40.7071 8.70711C41.0976 8.31658 41.0976 7.68342 40.7071 7.29289L34.3431 0.928932C33.9526 0.538408 33.3195 0.538408 32.9289 0.928932C32.5384 1.31946 32.5384 1.95262 32.9289 2.34315L38.5858 8L32.9289 13.6569C32.5384 14.0474 32.5384 14.6805 32.9289 15.0711C33.3195 15.4616 33.9526 15.4616 34.3431 15.0711L40.7071 8.70711ZM0 9H40V7H0V9Z"/>
    </symbol>
  </defs>
</svg>
